HIERARCHY
ROOT Hips
{
	OFFSET 0.000000 0.000000 0.000000 
	CHANNELS 6 Xposition Yposition Zposition Yrotation Zrotation Xrotation 
	JOINT Lumbar
	{
		OFFSET 0.000000 0.000000 0.000000 
		CHANNELS 3 Zrotation Xrotation Yrotation
		JOINT Neck
		{
			OFFSET 0.000000 0.445665 0.000000 
			CHANNELS 3 Zrotation Xrotation Yrotation
			End Site
			{
				OFFSET 0.000000 0.227535 0.000000 
			}
		}
		JOINT RightShoulder
		{
			OFFSET 0.019635 0.377685 0.194865 
			CHANNELS 3 Zrotation Xrotation Yrotation
			JOINT RightElbow
			{
				OFFSET 0.000000 -0.243375 0.000000 
				CHANNELS 2 Zrotation Yrotation
				JOINT RightWrist
				{
					OFFSET 0.000000 -0.264825 0.000000 
					CHANNELS 2 Zrotation Xrotation
					End Site
					{
						OFFSET 0.006600 -0.176220 0.000990 
					}
				}
			}
		}
		JOINT LeftShoulder
		{
			OFFSET 0.019635 0.377685 -0.194865 
			CHANNELS 3 Zrotation Xrotation Yrotation
			JOINT LeftElbow
			{
				OFFSET 0.000000 -0.243375 0.000000 
				CHANNELS 2 Zrotation Yrotation
				JOINT LeftWrist
				{
					OFFSET 0.000000 -0.264825 0.000000 
					CHANNELS 2 Zrotation Xrotation
					End Site
					{
						OFFSET 0.006600 -0.176220 -0.000990 
					}
				}
			}
		}
	}
	JOINT RightHip
	{
		OFFSET 0.052140 -0.069960 0.075570 
		CHANNELS 3 Zrotation Xrotation Yrotation
		JOINT RightKnee
		{
			OFFSET 0.000000 -0.402270 0.000000 
			CHANNELS 1 Zrotation
			JOINT RightAnkle
			{
				OFFSET 0.000000 -0.404085 0.000000 
				CHANNELS 3 Zrotation Xrotation Yrotation
				End Site
				{
					OFFSET 0.204105 -0.089430 0.008415 
				}
			}
		}
	}
	JOINT LeftHip
	{
		OFFSET 0.052140 -0.069960 -0.075570 
		CHANNELS 3 Zrotation Xrotation Yrotation
		JOINT LeftKnee
		{
			OFFSET 0.000000 -0.402270 0.000000 
			CHANNELS 1 Zrotation
			JOINT LeftAnkle
			{
				OFFSET 0.000000 -0.404085 0.000000 
				CHANNELS 3 Zrotation Xrotation Yrotation
				End Site
				{
					OFFSET 0.204105 -0.089430 -0.008415 
				}
			}
		}
	}
}
MOTION
Frames: 31
Frame Time: 0.02
-0.00021 -3e-05 5e-05 22.74932 -29.47911 -7.54555 48.76217 2.86456 -2.39148 -13.60784 -1.7303 -0.13383 65.70278 -100.5466 64.1712 7.22945 91.66824 7.03168 -0.0043 169.88211 80.40898 54.68838 7.38925 -80.88237 -6.59014 3.29265 44.2924 -2.90112 -5.82809 -21.68557 -6.93061 -3.57007 -2.54162 49.11101 8.42761 0.59092 -26.97555 -7.10367 3.01566 2.23207
-0.00019 -2e-05 1e-05 22.7363 -29.47371 -7.5428 48.76543 2.86536 -2.38431 -13.61585 -1.72713 -0.13388 65.86518 -100.52558 64.1712 7.21011 91.66793 7.02194 0.00376 169.88208 80.40244 54.66324 7.3943 -80.88099 -6.58995 3.2868 44.28819 -2.90328 -5.82414 -21.68687 -6.93018 -3.57062 -2.53976 49.09945 8.41047 0.53291 -26.97406 -7.10452 3.02563 2.23735
-0.00018 -2e-05 -2e-05 22.72333 -29.46832 -7.54006 48.76868 2.86615 -2.37717 -13.62383 -1.72397 -0.13393 66.02712 -100.50465 64.1712 7.19083 91.66763 7.01222 0.0118 169.88205 80.39594 54.63813 7.39933 -80.87961 -6.58975 3.28094 44.284 -2.90543 -5.82011 -21.68818 -6.92977 -3.57116 -2.5379 49.08792 8.39338 0.4751 -26.97257 -7.10537 3.03557 2.24263
-0.00016 -2e-05 -6e-05 22.71035 -29.46294 -7.53732 48.77193 2.86694 -2.37002 -13.63181 -1.72081 -0.13399 66.18901 -100.4837 64.1712 7.17155 91.66732 7.0025 0.01984 169.88201 80.38943 54.61308 7.40436 -80.87824 -6.58955 3.2751 44.27981 -2.90758 -5.81614 -21.68949 -6.92935 -3.57171 -2.53604 49.0764 8.3763 0.41727 -26.97108 -7.10621 3.04551 2.2479
-0.00014 -1e-05 -0.0001 22.69732 -29.45754 -7.53458 48.77519 2.86772 -2.36284 -13.63982 -1.71764 -0.13404 66.35138 -100.46265 64.1712 7.15221 91.66702 6.99277 0.02791 169.88198 80.38288 54.58796 7.40942 -80.87687 -6.58938 3.26927 44.2756 -2.90977 -5.81233 -21.69079 -6.92892 -3.57224 -2.53416 49.06484 8.35915 0.35921 -26.96959 -7.10706 3.05547 2.25318
-0.00013 -1e-05 -0.00014 22.68449 -29.45218 -7.53185 48.7784 2.86856 -2.35579 -13.64773 -1.71451 -0.13409 66.51242 -100.44194 64.1712 7.13306 91.66671 6.98307 0.0359 169.88194 80.37649 54.56285 7.41439 -80.87547 -6.58913 3.26334 44.27144 -2.91184 -5.80788 -21.69211 -6.92852 -3.57282 -2.53235 49.05339 8.34218 0.30193 -26.96811 -7.1079 3.06536 2.25842
-0.00011 -1e-05 -0.00018 22.67127 -29.44674 -7.52909 48.78172 2.86928 -2.34849 -13.65583 -1.71132 -0.13414 66.67586 -100.4206 64.1712 7.11355 91.66641 6.97332 0.04403 169.88191 80.36978 54.53786 7.41951 -80.87414 -6.58901 3.25763 44.26719 -2.91412 -5.80459 -21.6934 -6.92807 -3.57331 -2.53042 49.04173 8.32489 0.24319 -26.96661 -7.10875 3.07539 2.26375
-9e-05 -0 -0.00022 22.65839 -29.44138 -7.52637 48.78494 2.87011 -2.34142 -13.66376 -1.70816 -0.1342 66.83726 -100.39981 64.1712 7.09437 91.66611 6.96361 0.05203 169.88188 80.36336 54.51259 7.42451 -80.87273 -6.58879 3.25169 44.26303 -2.91622 -5.80044 -21.69472 -6.92766 -3.57386 -2.52858 49.03028 8.30789 0.18571 -26.96513 -7.1096 3.08529 2.269
-8e-05 -0 -0.00026 22.64597 -29.43611 -7.52366 48.78804 2.87107 -2.33464 -13.67148 -1.7051 -0.13426 66.99558 -100.37981 64.17119 7.07562 91.6658 6.95396 0.05985 169.88184 80.35734 54.48763 7.42933 -80.87128 -6.58838 3.24556 44.25894 -2.91805 -5.79442 -21.69606 -6.92731 -3.57458 -2.52692 49.01903 8.29125 0.13009 -26.96368 -7.11043 3.09503 2.27415
-5e-05 0 -0.0003 22.63104 -29.4303 -7.52075 48.79184 2.87126 -2.32618 -13.68037 -1.70165 -0.13428 67.16983 -100.3556 64.17122 7.05445 91.6655 6.94401 0.06867 169.88182 80.34912 54.46282 7.43509 -80.87022 -6.58887 3.2408 44.25434 -2.92128 -5.79671 -21.69723 -6.92665 -3.5746 -2.52441 49.00644 8.27252 0.06473 -26.96206 -7.11131 3.10569 2.27985
-4e-05 1e-05 -0.00034 22.62134 -29.42565 -7.51835 48.79412 2.87307 -2.32127 -13.68684 -1.69892 -0.13438 67.31161 -100.34006 64.17118 7.03835 91.6652 6.93466 0.07542 169.88177 80.34551 54.43645 7.43892 -80.86825 -6.58759 3.23299 44.25088 -2.92168 -5.78301 -21.69878 -6.92661 -3.57594 -2.5236 48.99678 8.25824 0.01931 -26.9608 -7.11211 3.11442 2.28441
-6e-05 1e-05 -0.00038 22.6268 -29.42408 -7.51686 48.79257 2.87941 -2.32626 -13.68621 -1.69915 -0.13468 67.35532 -100.35037 64.17095 7.0365 91.66464 6.92739 0.07622 169.88161 80.35496 54.41661 7.43691 -80.86435 -6.58037 3.21806 44.25009 -2.91309 -5.71205 -21.70137 -6.92863 -3.58224 -2.5283 48.99452 8.25604 0.03407 -26.96035 -7.11259 3.11754 2.28573
-9e-05 1e-05 -0.00041 22.63739 -29.42371 -7.51599 48.78941 2.88733 -2.3348 -13.68323 -1.69994 -0.13505 67.36891 -100.36897 64.17066 7.03965 91.66414 6.92067 0.075 169.88144 80.369 54.39354 7.43299 -80.85944 -6.57157 3.19985 44.25057 -2.9018 -5.62736 -21.70436 -6.9312 -3.58965 -2.53455 48.99536 8.25836 0.06775 -26.96027 -7.11302 3.11876 2.28594
-0.00011 1e-05 -0.00044 22.64506 -29.42284 -7.51517 48.7868 2.89451 -2.34161 -13.68162 -1.69979 -0.13539 67.40106 -100.38253 64.1704 7.04036 91.66373 6.91343 0.07488 169.88128 80.38065 54.36443 7.43044 -80.85461 -6.56423 3.18231 44.25073 -2.89265 -5.55783 -21.70716 -6.93325 -3.59568 -2.53951 48.99515 8.25867 0.08935 -26.96012 -7.11354 3.12101 2.28675
-0.00013 0 -0.0005 22.65511 -29.42174 -7.51291 48.78504 2.90191 -2.34892 -13.67872 -1.70244 -0.13573 67.40916 -100.40168 64.17011 7.04195 91.6627 6.9073 0.07396 169.88108 80.39349 54.36557 7.42615 -80.85131 -6.55382 3.16819 44.24967 -2.87997 -5.45117 -21.70994 -6.93644 -3.60533 -2.54689 48.99329 8.25869 0.12612 -26.95959 -7.11375 3.12253 2.28713
-0.00015 1e-05 -0.00049 22.66158 -29.42145 -7.51386 48.78099 2.90908 -2.35605 -13.67794 -1.69952 -0.13608 67.46449 -100.41089 64.16988 7.0427 91.66312 6.89904 0.07425 169.88096 80.40508 54.30477 7.42452 -80.84464 -6.54934 3.14625 44.25164 -2.8736 -5.41792 -21.71294 -6.9374 -3.60779 -2.54967 48.9958 8.26055 0.13523 -26.95991 -7.11463 3.12517 2.28818
-0.00018 1e-05 -0.00033 22.65553 -29.42271 -7.52277 48.77212 2.91646 -2.36159 -13.68376 -1.68018 -0.13642 67.62083 -100.39305 64.16984 7.04157 91.66651 6.88436 0.07821 169.88108 80.41107 54.05863 7.43488 -80.82853 -6.56221 3.10259 44.26007 -2.88894 -5.59709 -21.71583 -6.93172 -3.58916 -2.53878 49.00784 8.26513 0.06819 -26.96279 -7.11699 3.13081 2.29105
-0.00021 2e-05 -9e-05 22.64602 -29.42482 -7.535 48.76075 2.92331 -2.36688 -13.69174 -1.65546 -0.13676 67.83229 -100.36452 64.16987 7.03921 91.67155 6.8676 0.08344 169.88128 80.4159 53.75351 7.44707 -80.8091 -6.58095 3.05132 44.2718 -2.91011 -5.84989 -21.71905 -6.92382 -3.56335 -2.52329 49.02453 8.27172 -0.02803 -26.96648 -7.12011 3.1377 2.29467
-0.00024 3e-05 0.00013 22.63893 -29.42679 -7.54617 48.74984 2.92958 -2.37246 -13.69865 -1.63376 -0.13711 68.04305 -100.33926 64.16986 7.03622 91.67649 6.85207 0.08828 169.88144 80.42188 53.48479 7.45581 -80.7915 -6.59663 3.00421 44.28308 -2.92613 -6.06428 -21.72255 -6.91717 -3.5415 -2.51032 49.04021 8.27815 -0.11436 -26.96962 -7.12316 3.14444 2.29819
-0.00027 4e-05 0.00027 22.62821 -29.42775 -7.5555 48.74188 2.9394 -2.3774 -13.70595 -1.60942 -0.13743 68.15128 -100.32079 64.16986 7.03805 91.67866 6.83537 0.09247 169.88162 80.42519 53.17375 7.47603 -80.77266 -6.61404 2.95418 44.29001 -2.95232 -6.29726 -21.7243 -6.90958 -3.51698 -2.49571 49.05123 8.28127 -0.18669 -26.97351 -7.12508 3.1495 2.30078
-0.0003 5e-05 0.0006 22.62444 -29.43099 -7.56938 48.72703 2.94164 -2.38357 -13.71289 -1.5896 -0.1378 68.48491 -100.28575 64.16987 7.02997 91.68704 6.82061 0.09808 169.88177 80.43396 52.93899 7.4722 -80.75542 -6.62908 2.90826 44.30671 -2.9591 -6.51147 -21.72972 -6.90332 -3.49603 -2.48324 49.07317 8.29206 -0.29422 -26.97605 -7.12951 3.15817 2.30536
-0.00035 9e-05 0.00142 22.63828 -29.44031 -7.59561 48.69527 2.9234 -2.39321 -13.71907 -1.5809 -0.1383 69.44095 -100.20562 64.16986 6.99112 91.71258 6.81158 0.10951 169.88182 80.4562 52.91453 7.40681 -80.74476 -6.63771 2.87729 44.35029 -2.90751 -6.63463 -21.74549 -6.90202 -3.48926 -2.47928 49.1228 8.3203 -0.50178 -26.97442 -7.14087 3.17857 2.31629
-0.0004 0.00014 0.00243 22.65964 -29.45185 -7.62615 48.65641 2.89752 -2.40401 -13.72475 -1.57741 -0.13885 70.61894 -100.10948 64.16985 6.94338 91.74479 6.80457 0.1218 169.88184 80.48428 52.97368 7.31629 -80.73532 -6.64342 2.85035 44.40346 -2.83661 -6.73922 -21.76489 -6.90201 -3.48598 -2.47743 49.18346 8.35671 -0.7421 -26.97143 -7.15471 3.20224 2.32903
-0.00044 0.00018 0.00337 22.67916 -29.4624 -7.65438 48.61982 2.87484 -2.41433 -13.73009 -1.57331 -0.13938 71.68741 -100.02192 64.16985 6.90162 91.77298 6.79678 0.13245 169.88188 80.51097 53.0017 7.23368 -80.72472 -6.64952 2.8205 44.45176 -2.777 -6.86777 -21.78243 -6.90087 -3.47925 -2.47356 49.24 8.39153 -0.96082 -26.96922 -7.16731 3.22305 2.34023
-0.0005 0.00023 0.00425 22.69201 -29.47305 -7.68438 48.58714 2.85306 -2.42472 -13.73767 -1.56169 -0.13989 72.79683 -99.92854 64.16984 6.85007 91.80315 6.78848 0.14898 169.88191 80.53242 52.99038 7.16549 -80.71757 -6.65996 2.79513 44.5023 -2.7078 -6.93812 -21.80084 -6.90185 -3.4796 -2.4737 49.29312 8.41766 -1.20839 -26.96639 -7.18041 3.24955 2.35441
-0.00054 0.00026 0.00531 22.72042 -29.48384 -7.71146 48.54472 2.82786 -2.43489 -13.74074 -1.56695 -0.14046 73.86978 -99.84353 64.16984 6.81876 91.83356 6.78158 0.15276 169.88192 80.56601 53.09202 7.06183 -80.70233 -6.66038 2.76124 44.55047 -2.65289 -7.11837 -21.81832 -6.89888 -3.46679 -2.46641 49.35567 8.46353 -1.40387 -26.96448 -7.19306 3.26513 2.36289
-0.00054 0.00023 0.00685 22.79143 -29.49578 -7.73106 48.47653 2.79291 -2.44726 -13.72867 -1.61836 -0.14119 74.81417 -99.78611 64.16985 6.82961 91.8359 6.77888 0.12687 169.88183 80.63303 53.399 6.86175 -80.67475 -6.63604 2.70499 44.58921 -2.65099 -7.65813 -21.83218 -6.8835 -3.41097 -2.43485 49.44388 8.56424 -1.44245 -26.96585 -7.20362 3.24826 2.35445
-0.00052 0.00018 0.00858 22.87764 -29.50752 -7.74722 48.39894 2.75518 -2.45889 -13.7126 -1.6864 -0.14198 75.70851 -99.73749 64.16984 6.86457 91.84125 6.77699 0.08698 169.88149 80.7117 53.83477 6.6278 -80.63688 -6.60153 2.6397 44.62526 -2.6626 -8.2998 -21.84501 -6.86432 -3.34284 -2.39631 49.54075 8.68404 -1.42833 -26.96812 -7.21367 3.22055 2.34035
-0.00051 0.00014 0.01022 22.95584 -29.51848 -7.76384 48.32599 2.72015 -2.4687 -13.70019 -1.74639 -0.14274 76.60874 -99.68472 64.16992 6.89836 91.86559 6.77466 0.04976 169.88159 80.78431 54.2663 6.41225 -80.59726 -6.56989 2.57711 44.66291 -2.66204 -8.85987 -21.85838 -6.84768 -3.28427 -2.36312 49.63214 8.79358 -1.44143 -26.96969 -7.22409 3.19877 2.32936
-0.00051 0.0001 0.01187 23.03867 -29.5332 -7.78529 48.25108 2.67881 -2.48727 -13.67996 -1.80887 -0.14351 77.58985 -99.63257 64.16983 6.88865 91.81264 6.77423 0.02837 169.88126 80.86083 54.46487 6.18271 -80.58569 -6.5445 2.52044 44.69948 -2.68572 -9.56567 -21.8715 -6.82772 -3.20932 -2.32094 49.73044 8.91022 -1.44168 -26.97241 -7.23402 3.17289 2.31618
-0.00049 5e-05 0.01354 23.11572 -29.54 -7.79578 48.17829 2.65004 -2.4879 -13.67507 -1.86976 -0.14428 78.38531 -99.58072 64.16986 6.97772 91.9107 6.76811 -0.02961 169.88054 80.93132 55.18651 5.97513 -80.51215 -6.50505 2.44944 44.73734 -2.66307 -9.99568 -21.88493 -6.81367 -3.16519 -2.29563 49.81627 9.01636 -1.45601 -26.97298 -7.24481 3.1529 2.30617
